<svg xmlns="http://www.w3.org/2000/svg" viewBox="0 0 200 200" fill="currentColor">
  <rect width="200" height="200" fill="white"/>
  <path d="M100 20c-8 0-15 2-21 6-3 2-6 4-8 7-4 5-7 11-8 18-1 4-1 8 0 12 0 2 1 4 1 6-2 1-3 3-4 5-2 3-3 7-3 11 0 3 1 6 2 9 1 2 3 4 5 5 1 4 3 8 6 11 2 3 5 5 8 7 0 3 0 6-1 9-1 4-3 7-6 10-4 4-9 7-15 9-8 3-17 5-26 7-6 2-12 4-17 7-4 3-7 6-9 10-2 4-3 8-3 13v8h200v-8c0-5-1-9-3-13-2-4-5-7-9-10-5-3-11-5-17-7-9-2-18-4-26-7-6-2-11-5-15-9-3-3-5-6-6-10-1-3-1-6-1-9 3-2 6-4 8-7 3-3 5-7 6-11 2-1 4-3 5-5 1-3 2-6 2-9 0-4-1-8-3-11-1-2-2-4-4-5 0-2 1-4 1-6 1-4 1-8 0-12-1-7-4-13-8-18-2-3-5-5-8-7-6-4-13-6-21-6z" fill="black"/>
  <path d="M72 26c-2 3-1 6 1 8 1 1 2 2 4 2-1 2-1 4-1 6 0 3 1 5 3 7-3-1-5 0-7 2-1 1-2 3-2 5 1-2 3-3 5-3 1 0 2 0 3 1-2 1-3 3-3 5 0 1 0 2 1 3-2-1-4 0-5 1s-2 3-1 4c-1-1-3-1-4 0-2 1-2 3-2 5 2-1 4-1 5 0-2 2-2 5-1 7M128 26c2 3 1 6-1 8-1 1-2 2-4 2 1 2 1 4 1 6 0 3-1 5-3 7 3-1 5 0 7 2 1 1 2 3 2 5-1-2-3-3-5-3-1 0-2 0-3 1 2 1 3 3 3 5 0 1 0 2-1 3 2-1 4 0 5 1s2 3 1 4c1-1 3-1 4 0 2 1 2 3 2 5-2-1-4-1-5 0 2 2 2 5 1 7M85 18c-3 1-5 4-5 7 1-2 3-4 6-4M115 18c3 1 5 4 5 7-1-2-3-4-6-4M78 22c-2 2-3 5-2 8 0-3 2-5 4-6M122 22c2 2 3 5 2 8 0-3-2-5-4-6" fill="black"/>
</svg>