<svg xmlns="http://www.w3.org/2000/svg" viewBox="0 70 1024 880" preserveAspectRatio="xMidYMax slice">
  <rect x="0" y="70" width="1024" height="880" fill="white"/>
  <path d="M512 95
    q-15-5-32-2q-18 3-35 12q-15 8-28 20q-12 11-22 25
    q-8 12-14 26q-5 13-8 27q-2 12-2 25q0 12 3 24
    q-20 8-35 22q-14 13-22 30q-7 15-8 32q0 16 7 31
    q6 14 17 26q10 11 23 19
    q5 25 17 47q11 20 27 37q15 16 33 28
    q-2 30-12 58q-11 30-30 55q-20 27-48 47q-30 21-67 35
    q-45 17-97 28q-55 12-112 24q-50 11-95 28q-40 15-72 38
    q-28 20-47 48q-17 25-24 55q-5 22-5 46v140h1024v-140
    q0-24-5-46q-7-30-24-55q-19-28-47-48q-32-23-72-38
    q-45-17-95-28q-57-12-112-24q-52-11-97-28q-37-14-67-35
    q-28-20-48-47q-19-25-30-55q-10-28-12-58
    q18-12 33-28q16-17 27-37q12-22 17-47
    q13-8 23-19q11-12 17-26q7-15 7-31q-1-17-8-32
    q-8-17-22-30q-15-14-35-22
    q3-12 3-24q0-13-2-25q-3-14-8-27q-6-14-14-26
    q-10-14-22-25q-13-12-28-20q-17-9-35-12q-17-3-32 2

    M380 120q-8 5-12 14q-3 8 0 17q2 8 10 14q-5 8-6 18q0 10 5 18
    q-12 2-20 12q-7 9-6 20q6-8 15-11q8-3 16 0q-6 6-7 15q-1 8 3 16
    q-10 3-16 12q-5 8-4 18q7-7 17-9q9-2 17 3q-5 8-5 17q0 9 6 16

    M644 120q8 5 12 14q3 8 0 17q-2 8-10 14q5 8 6 18q0 10-5 18
    q12 2 20 12q7 9 6 20q-6-8-15-11q-8-3-16 0q6 6 7 15q1 8-3 16
    q10 3 16 12q5 8 4 18q-7-7-17-9q-9-2-17 3q5 8 5 17q0 9-6 16

    M420 100q-10 5-15 16q-4 10 0 20q5-8 14-11q8-2 16 2q-4-10-15-27z
    M604 100q10 5 15 16q4 10 0 20q-5-8-14-11q-8-2-16 2q4-10 15-27z

    M395 135q-7 7-9 17q-1 9 4 17q4-7 12-10q7-2 14 1q-3-8-5-13q-3-7-16-12z
    M629 135q7 7 9 17q1 9-4 17q-4-7-12-10q-7-2-14 1q3-8 5-13q3-7 16-12z" fill="black"/>
</svg>
